# xmcd
#
# Track frame offsets: 
#        150
#        19843
#        36343
#        50525
#        66228
#        82842
#        103329
#        122053
#        144770
#        170049
#        204550
#
# Disc length: 2954 seconds
#
# Revision: 0
# Processed by: cddbd v1.5.2PL0 Copyright (c) Steve Scherf et al.
# Submitted via: ExactAudioCopy v1.0b3
#
DISCID=990b880b
DTITLE=Shit City - Shit City
DYEAR=2009
DGENRE=Country
TTITLE0=Afterburner
TTITLE1=Tears All Over
TTITLE2=I Had A Friend
TTITLE3=Portuguese Harbor
TTITLE4=Slow Down
TTITLE5=Still I Can Remember
TTITLE6=Billy And Pilgrim
TTITLE7=Harbor
TTITLE8=Bottle's Empty
TTITLE9=Shit City
TTITLE10=Chestnut Donkey
EXTD=
EXTT0=
EXTT1=
EXTT2=
EXTT3=
EXTT4=
EXTT5=
EXTT6=
EXTT7=
EXTT8=
EXTT9=
EXTT10=
PLAYORDER=
